<?xml version="1.0" encoding="UTF-8"?>
<!DOCTYPE svg PUBLIC "-//W3C//DTD SVG 1.1//EN" "http://www.w3.org/Graphics/SVG/1.1/DTD/svg11.dtd">
<!-- Creator: CorelDRAW 2018 -->
<svg xmlns="http://www.w3.org/2000/svg" xml:space="preserve" width="1181px" height="1364px" version="1.1" style="shape-rendering:geometricPrecision; text-rendering:geometricPrecision; image-rendering:optimizeQuality; fill-rule:evenodd; clip-rule:evenodd"
viewBox="0 0 1181 1363.7"
 xmlns:xlink="http://www.w3.org/1999/xlink">
 <defs>
  <style type="text/css">
   <![CDATA[
    .fil1 {fill:#47B14B}
    .fil0 {fill:#108A4A}
   ]]>
  </style>
 </defs>
 <g id="Layer_x0020_1">
  <metadata id="CorelCorpID_0Corel-Layer"/>
  <g id="_885436000">
   <path class="fil0" d="M590.5 0l295.25 170.46 295.25 170.46 0 340.93 0 340.92 -295.25 170.47 -295.25 170.46 -295.25 -170.46 -295.25 -170.47 0 -340.92 0 -340.93 295.25 -170.46 295.25 -170.46zm-134.97 260.06l269.94 0 0 243.14 -397.07 313.62 -159.68 0 0 -269.95 286.81 0 0 -286.81zm326.64 286.81l230.12 0 0 181.76 -230.12 -181.76zm-191.67 -488.43l-539.89 311.71 0 623.4 539.89 311.7 539.89 -311.7 0 -623.4 -539.89 -311.71z"/>
   <path class="fil1" d="M725.77 546.87l0.8 0 285.72 225.67 0 44.28 -286.82 0 0 286.81 -269.94 0 0 -286.81 -71.54 0 341.78 -269.95zm-28.99 108.67c15.2,0 29.2,5.17 40.33,13.84 11.13,-8.67 25.12,-13.84 40.32,-13.84 18.13,0 34.55,7.35 46.43,19.23 11.88,11.88 19.23,28.3 19.23,46.43 0,18.13 -7.35,34.54 -19.23,46.42 -11.88,11.88 -28.3,19.24 -46.43,19.24 -15.2,0 -29.19,-5.18 -40.32,-13.85 -11.13,8.67 -25.13,13.85 -40.33,13.85 -18.12,0 -34.54,-7.36 -46.42,-19.24 -11.88,-11.88 -19.23,-28.29 -19.23,-46.42 0,-18.13 7.35,-34.55 19.23,-46.43 11.88,-11.88 28.3,-19.23 46.42,-19.23zm49.14 22.11c10.28,11.58 16.52,26.84 16.52,43.55 0,16.71 -6.24,31.96 -16.52,43.55 8.85,6.42 19.74,10.2 31.51,10.2 14.85,0 28.29,-6.02 38.01,-15.74 9.73,-9.73 15.74,-23.17 15.74,-38.01 0,-14.85 -6.01,-28.29 -15.74,-38.01 -9.72,-9.73 -23.16,-15.74 -38.01,-15.74 -11.77,0 -22.66,3.78 -31.51,10.2zm-17.62 87.1c-10.28,-11.59 -16.52,-26.84 -16.52,-43.55 0,-16.71 6.24,-31.97 16.52,-43.55 -8.85,-6.42 -19.74,-10.2 -31.52,-10.2 -14.84,0 -28.28,6.01 -38.01,15.74 -9.72,9.72 -15.74,23.16 -15.74,38.01 0,14.84 6.02,28.28 15.74,38.01 9.73,9.72 23.17,15.74 38.01,15.74 11.78,0 22.67,-3.78 31.52,-10.2zm8.81 -79.1c-8.36,9.47 -13.43,21.92 -13.43,35.55 0,13.62 5.07,26.07 13.43,35.54 8.35,-9.47 13.43,-21.92 13.43,-35.54 0,-13.63 -5.08,-26.08 -13.43,-35.55z"/>
  </g>
 </g>
</svg>
